<svg width="478" height="390" viewBox="0 0 478 390" fill="none" xmlns="http://www.w3.org/2000/svg">
<g clip-path="url(#clip0_2054_57)">
<path d="M179.038 0.068432C183.409 0.0540541 187.78 0.0440585 192.151 0.0371726C193.639 0.0343034 195.127 0.0304147 196.615 0.0255025C198.749 0.0186334 200.883 0.0153789 203.017 0.0128598C203.687 0.00992268 204.357 0.00698561 205.047 0.00395952C205.663 0.00391654 206.279 0.00387356 206.914 0.00382928C207.459 0.00256562 208.004 0.00130196 208.566 0C209.802 0.068432 209.802 0.068432 210.372 0.637492C211.868 0.799938 213.36 0.936541 214.859 1.06429C219.787 1.52831 224.627 2.32716 229.493 3.23383C230.174 3.36018 230.855 3.48654 231.557 3.61672C236.419 4.54103 236.419 4.54103 237.718 5.18997C238.805 5.35127 239.893 5.49681 240.983 5.63455C245.254 6.27188 249.202 7.49151 253.278 8.88886C253.646 9.01347 254.015 9.13808 254.394 9.26647C280.851 18.2341 280.851 18.2341 290.701 25.1071C290.701 25.4826 290.701 25.8582 290.701 26.2452C291.121 26.3802 291.54 26.5151 291.972 26.6542C293.793 27.4958 294.702 28.4325 296.007 29.9441C296.404 30.3959 296.801 30.8478 297.211 31.3134C298.107 32.5048 298.107 32.5048 298.107 33.643C298.483 33.643 298.859 33.643 299.247 33.643C300.557 35.4342 301.593 37.3931 302.665 39.3336C302.886 39.7157 303.107 40.0979 303.335 40.4917C307.335 48.2506 307.618 58.522 305.134 66.7701C303.282 72.0409 300.492 76.5424 296.968 80.8749C296.452 81.5846 296.452 81.5846 295.926 82.3087C294.46 83.9814 292.823 85.1182 290.95 86.281C290.599 86.5022 290.247 86.7234 289.885 86.9513C280.674 92.6392 270.577 94.5602 259.866 92.2917C255.218 90.8855 250.811 88.6326 246.416 86.5914C243.741 85.3593 241.024 84.2408 238.288 83.1512C237.622 82.8776 236.956 82.6039 236.269 82.322C226.126 78.2525 215.692 76.4875 204.86 75.3605C203.536 75.1843 203.536 75.1843 202.405 74.8865C194.403 72.9968 184.788 74.6615 176.809 76.116C175.186 76.3978 173.552 76.5837 171.917 76.7848C164.381 77.9555 157.063 80.631 150.047 83.5513C148.692 84.1154 147.346 84.6291 145.959 85.1073C136.011 88.8575 126.723 95.1027 118.649 101.93C117.653 102.714 116.656 103.497 115.658 104.278C113.992 105.602 112.438 106.946 110.958 108.474C110.488 108.944 110.018 109.413 109.533 109.897C109.157 109.897 108.781 109.897 108.394 109.897C108.248 110.225 108.102 110.553 107.951 110.891C107.187 112.298 106.313 113.31 105.225 114.485C100.644 119.255 100.644 119.255 96.9998 124.693C96.6238 124.693 96.2478 124.693 95.8604 124.693C95.7142 125.096 95.5681 125.499 95.4175 125.915C94.6657 127.667 93.7414 129.149 92.6914 130.739C91.6232 132.358 90.778 133.663 90.1633 135.505C89.7873 135.505 89.4113 135.505 89.0239 135.505C88.8241 136.185 88.6244 136.866 88.4186 137.568C87.6339 139.934 86.6105 142.077 85.4632 144.29C71.6788 171.193 70.6897 203.818 79.7369 232.363C83.3846 243.434 88.9137 254.315 95.5533 263.865C96.4301 265.25 96.4301 265.25 96.4301 266.388C96.9941 266.576 97.5581 266.764 98.1392 266.957C99.0665 268.066 99.9249 269.171 100.774 270.336C103.329 273.747 106.035 276.945 108.964 280.046C109.302 280.408 109.641 280.769 109.99 281.142C112.107 283.334 114.381 285.194 116.815 287.026C117.96 287.92 118.987 288.861 120.037 289.862C123.487 292.918 127.587 295.12 131.54 297.454C132.83 298.219 134.111 298.999 135.391 299.783C141.673 303.604 148.355 307.556 155.689 308.85C156.91 309.085 158.03 309.443 159.205 309.85C160.119 310.159 161.033 310.467 161.947 310.775C162.487 310.958 163.026 311.142 163.582 311.331C185.773 318.302 210.374 315.79 232.345 309.463C233.511 309.13 234.682 308.814 235.853 308.501C240.992 307.068 245.562 304.728 250.252 302.239C251.119 301.787 251.119 301.787 252.003 301.326C257.663 298.317 262.918 294.795 268.126 291.071C268.567 290.758 269.008 290.445 269.462 290.122C271.329 288.774 273.101 287.455 274.7 285.794C275.093 285.4 275.485 285.005 275.889 284.598C276.265 284.598 276.641 284.598 277.028 284.598C277.216 284.035 277.404 283.472 277.598 282.891C278.519 281.916 279.474 280.971 280.446 280.046C283.976 276.613 287.283 273.263 290.132 269.234C290.508 268.788 290.884 268.342 291.271 267.882C292.625 266.107 293.732 264.244 294.863 262.321C295.889 260.597 296.963 258.907 298.036 257.212C300.431 253.333 302.478 249.321 304.45 245.213C304.868 244.351 305.304 243.497 305.743 242.646C312.754 228.527 314.404 211.225 314.914 195.683C315.272 184.898 316.401 174.757 324.029 166.376C324.499 165.954 324.969 165.531 325.453 165.096C326.074 164.352 326.691 163.605 327.305 162.855C329.43 160.41 331.782 158.754 334.569 157.129C334.932 156.913 335.294 156.696 335.668 156.473C344.049 151.871 354.021 151.909 363.068 154.139C371.845 156.728 379.272 162.483 384.134 170.217C385.343 172.462 386.458 174.743 387.552 177.046C387.742 177.39 387.932 177.733 388.128 178.087C390.238 182.714 389.995 188.384 389.975 193.364C389.977 194.058 389.979 194.751 389.981 195.466C389.985 197.371 389.983 199.275 389.98 201.18C389.977 203.242 389.981 205.305 389.984 207.367C389.989 211.399 389.988 215.43 389.985 219.462C389.982 222.741 389.982 226.019 389.983 229.298C389.983 229.766 389.984 230.233 389.984 230.715C389.984 231.666 389.984 232.616 389.985 233.567C389.988 242.465 389.984 251.364 389.978 260.263C389.973 267.888 389.974 275.513 389.979 283.138C389.985 292.007 389.988 300.875 389.984 309.743C389.984 310.69 389.984 311.637 389.983 312.584C389.983 313.05 389.983 313.515 389.983 313.995C389.982 317.268 389.983 320.54 389.986 323.812C389.989 327.803 389.988 331.794 389.982 335.786C389.979 337.82 389.978 339.853 389.982 341.887C389.986 344.098 389.981 346.308 389.975 348.518C389.978 349.153 389.98 349.788 389.983 350.443C389.953 356.467 389.379 362.027 386.448 367.361C386.151 367.93 386.151 367.93 385.848 368.511C384.072 371.89 382.33 374.669 379.576 377.355C379.118 377.918 378.659 378.482 378.187 379.062C373.083 385.032 365.682 388.832 357.927 389.874C346.638 390.505 336.705 388.934 327.984 381.181C325.852 379.079 323.795 376.935 322.035 374.51C321.767 374.144 321.499 373.778 321.223 373.401C315.92 365.869 315.339 357.884 314.629 348.902C314.08 349.347 313.53 349.793 312.964 350.251C312.238 350.833 311.511 351.415 310.783 351.996C310.422 352.29 310.061 352.584 309.689 352.887C309.336 353.167 308.984 353.448 308.62 353.737C308.137 354.126 308.137 354.126 307.644 354.523C306.653 355.162 306.653 355.162 305.426 355.464C304.906 355.596 304.906 355.596 304.374 355.731C304.186 356.106 303.998 356.482 303.805 356.869C302.995 357.491 302.16 358.08 301.312 358.647C300.861 358.954 300.41 359.26 299.946 359.576C298.677 360.283 298.677 360.283 296.968 360.283C296.968 360.659 296.968 361.034 296.968 361.421C296.164 362.035 296.164 362.035 295.021 362.702C294.594 362.951 294.167 363.201 293.727 363.458C293.257 363.725 292.788 363.992 292.303 364.267C291.819 364.543 291.335 364.82 290.836 365.105C283.19 369.409 275.293 373.133 267.027 376.084C265.346 376.685 263.691 377.322 262.038 377.995C255.681 380.544 249.238 382.516 242.638 384.334C241.653 384.609 240.669 384.892 239.689 385.185C235.489 386.407 231.247 387.132 226.928 387.773C225.733 387.952 224.54 388.139 223.347 388.327C214.307 389.716 205.278 389.972 196.143 389.949C194.743 389.946 193.344 389.949 191.944 389.952C183.609 389.956 175.171 389.9 166.932 388.523C166.46 388.448 165.987 388.372 165.501 388.295C161.254 387.605 157.03 386.837 152.831 385.891C152.446 385.805 152.06 385.719 151.662 385.63C141.275 383.259 131.185 379.484 121.497 375.079C120.657 374.711 119.816 374.345 118.974 373.981C112.742 371.265 106.737 368.443 101.139 364.547C100.129 363.882 99.0859 363.268 98.0324 362.675C95.4646 361.226 93.0351 359.581 90.5906 357.936C90.1338 357.63 89.677 357.324 89.2064 357.009C88.3631 356.444 87.5201 355.879 86.6777 355.313C85.7521 354.691 84.8245 354.073 83.8965 353.455C83.8965 353.079 83.8965 352.703 83.8965 352.316C83.5058 352.189 83.1151 352.061 82.7126 351.93C80.6334 350.991 78.9648 349.683 77.2024 348.262C76.6796 347.845 76.6796 347.845 76.1461 347.42C69.81 342.333 69.81 342.333 67.9446 340.366C67.9446 339.991 67.9446 339.615 67.9446 339.228C67.6119 339.076 67.2792 338.924 66.9365 338.768C61.4454 335.838 56.8448 330.078 52.8517 325.413C52.1403 324.601 51.3777 323.834 50.6041 323.081C49.7139 322.156 49.7139 322.156 49.7139 321.018C49.1499 320.83 48.5859 320.643 48.0048 320.449C47.1256 319.485 46.2877 318.483 45.4767 317.462C45.0426 316.919 44.6086 316.376 44.1614 315.817C43.7377 315.28 43.314 314.743 42.8774 314.189C42.4977 313.719 42.118 313.249 41.7268 312.765C40.5113 311.234 39.3372 309.68 38.1773 308.108C37.7748 307.566 37.3724 307.023 36.9577 306.465C36.0408 305.085 36.0408 305.085 36.0408 303.946C35.6648 303.946 35.2888 303.946 34.9014 303.946C34.6547 303.418 34.4079 302.89 34.1537 302.346C33.3573 300.615 33.3573 300.615 32.4357 299.805C31.0339 298.362 30.0254 296.676 28.9551 294.984C28.7373 294.645 28.5196 294.306 28.2952 293.957C25.8925 290.192 23.7435 286.304 21.6557 282.358C21.4352 281.941 21.2148 281.525 20.9876 281.096C18.904 277.145 16.8941 273.157 14.9176 269.151C14.5562 268.425 14.189 267.703 13.8172 266.983C12.4662 264.352 11.3452 261.697 10.3327 258.92C10.1895 258.534 10.0463 258.149 9.89873 257.753C7.63389 251.629 7.63389 251.629 7.3061 249.103C7.00616 247.172 6.43216 245.583 5.73481 243.77C4.9401 241.547 4.39557 239.27 3.85224 236.975C3.6691 236.209 3.6691 236.209 3.48226 235.427C2.27854 230.207 1.53625 224.939 0.895196 219.624C0.761715 218.535 0.761715 218.535 0.14912 217.449C0.0903614 216.09 0.0654774 214.747 0.0663621 213.388C0.0644487 212.97 0.0625439 212.551 0.0605725 212.12C0.0551438 210.731 0.0540379 209.342 0.0534268 207.953C0.051596 206.986 0.0496707 206.019 0.047672 205.052C0.044255 203.019 0.0432144 200.987 0.0435515 198.955C0.0436091 196.363 0.0358686 193.771 0.0260262 191.179C0.0196572 189.179 0.0185281 187.178 0.0188283 185.177C0.0181599 184.223 0.0156596 183.268 0.0112306 182.313C-0.0267129 173.282 -0.0266988 173.282 1.00436 169.097C1.32092 167.809 1.51407 166.529 1.69357 165.216C1.7861 164.543 1.7861 164.543 1.8805 163.856C1.94366 163.397 2.00682 162.937 2.07189 162.464C3.00138 156.015 4.40116 149.787 6.58729 143.64C7.08325 142.013 7.37975 140.377 7.69778 138.706C9.82745 128.424 14.4435 118.346 19.4877 109.174C20.9792 106.445 22.2894 103.656 23.5784 100.828C24.939 97.8627 26.317 95.2261 28.4143 92.7007C29.8834 90.8158 30.9471 88.6769 32.0529 86.5655C32.4289 86.5655 32.8049 86.5655 33.1923 86.5655C33.3267 86.1738 33.4611 85.7821 33.5996 85.3785C34.4792 83.3862 35.6529 81.6999 36.931 79.9502C37.1848 79.6 37.4386 79.2498 37.7 78.8891C41.4752 73.7253 45.6082 68.9335 49.9587 64.2522C51.1842 62.9239 52.3797 61.5796 53.5594 60.2109C61.6581 50.911 61.6581 50.911 65.6658 49.5766C65.6658 49.2011 65.6658 48.8255 65.6658 48.4385C66.5138 47.6802 67.3994 46.9634 68.3007 46.269C68.8184 45.8648 69.3362 45.4606 69.8696 45.0442C70.3624 44.662 70.8552 44.2798 71.3629 43.886C73.675 42.1703 73.675 42.1703 75.3508 39.9026C76.2316 39.4028 77.1139 38.9056 78.0013 38.4177C79.7002 37.4126 81.3163 36.2995 82.9351 35.1723C83.2602 34.9466 83.5852 34.7209 83.9201 34.4884C85.3267 33.5079 86.7255 32.5191 88.1092 31.5068C95.6268 26.0493 103.795 21.8475 112.325 18.2289C113.838 17.5718 115.324 16.8652 116.811 16.1516C126.952 11.292 138.349 6.748 149.54 5.41004C151.108 5.192 152.527 4.82557 154.042 4.37195C158.286 3.1383 162.667 2.59144 167.033 1.95497C168.027 1.80399 169.017 1.62715 170.005 1.4444C171.873 1.1713 173.662 1.15175 175.549 1.17099C176.205 1.17612 176.862 1.18126 177.538 1.18655C178.033 1.19315 178.528 1.19975 179.038 1.20655C179.038 0.830972 179.038 0.455393 179.038 0.068432Z" fill="#00CC99"/>
<path d="M190.504 131.45C191.555 131.447 191.555 131.447 192.627 131.443C205.686 131.457 205.686 131.457 208.093 132.659C209.32 132.78 210.549 132.87 211.779 132.944C212.515 132.991 213.252 133.038 214.011 133.086C214.792 133.134 215.573 133.181 216.354 133.228C217.88 133.321 219.405 133.416 220.93 133.513C221.609 133.554 222.288 133.595 222.987 133.637C224.615 133.798 224.615 133.798 225.754 134.367C226.573 134.378 227.393 134.362 228.211 134.331C230.501 134.302 232.623 134.513 234.879 134.9C238.75 135.519 242.603 135.854 246.513 136.109C247.55 136.18 247.55 136.18 248.607 136.251C254.849 136.665 261.091 137.022 267.343 137.212C267.996 137.232 267.996 137.232 268.662 137.252C273.948 137.389 279.166 137.155 284.435 136.714C284.972 136.669 285.51 136.625 286.063 136.579C289.568 136.256 292.96 135.681 296.398 134.936C299.461 134.331 299.461 134.331 300.827 134.062C301.643 133.892 302.454 133.699 303.257 133.48C304.374 133.228 304.374 133.228 306.653 133.228C306.653 132.853 306.653 132.477 306.653 132.09C308.345 131.903 310.037 131.715 311.781 131.521C311.029 133.849 310.237 134.875 308.256 136.287C305.456 138.426 302.953 140.772 300.458 143.258C300.092 143.619 299.726 143.979 299.349 144.35C297.309 146.4 295.637 148.408 294.12 150.869C293.744 151.433 293.368 151.996 292.98 152.576C292.604 152.576 292.228 152.576 291.841 152.576C291.723 152.952 291.606 153.328 291.485 153.715C290.815 155.173 290.218 156.105 289.241 157.342C285.264 162.5 282.197 168.206 279.565 174.143C278.464 176.49 277.141 178.672 275.809 180.894C273.952 184.124 272.336 187.475 270.695 190.819C270.036 192.159 269.367 193.494 268.696 194.829C268.476 195.269 268.256 195.709 268.029 196.163C265.705 200.804 265.705 200.804 264.844 202.52C264.185 203.84 263.531 205.162 262.881 206.486C262.705 206.843 262.529 207.199 262.348 207.567C261.849 208.578 261.353 209.59 260.856 210.603C260.073 212.072 259.261 213.307 258.228 214.604C257.65 215.548 257.082 216.497 256.519 217.449C255.834 218.541 255.146 219.629 254.456 220.717C253.82 221.756 253.217 222.816 252.624 223.88C251.371 226.079 249.939 228.113 248.436 230.146C248.163 230.517 247.89 230.888 247.609 231.27C245.579 233.992 243.415 236.544 241.094 239.027C240.163 240.032 239.309 241.055 238.466 242.132C237.031 243.759 235.548 244.73 233.73 245.902C232.497 247.077 231.304 248.245 230.208 249.55C228.645 250.916 226.823 251.754 224.971 252.66C224.566 252.86 224.16 253.059 223.742 253.265C218.808 255.658 213.84 257.851 208.395 258.741C207.493 258.897 206.594 259.074 205.702 259.281C201.72 260.201 197.889 260.281 193.815 260.236C193.166 260.235 192.517 260.235 191.849 260.234C187.094 260.209 187.094 260.209 186.444 259.56C185.379 259.386 184.31 259.237 183.24 259.097C176.287 258.054 170.261 256.362 164.226 252.731C163.47 252.344 162.712 251.962 161.947 251.593C161.947 251.217 161.947 250.842 161.947 250.455C161.208 250.399 161.208 250.399 160.454 250.341C158.143 249.794 156.793 248.695 155.075 247.147C154.499 246.645 153.922 246.144 153.346 245.642C152.527 244.926 152.527 244.926 151.692 244.195C151.152 243.782 150.613 243.369 150.056 242.944C149.656 242.605 149.256 242.267 148.844 241.919C148.844 241.543 148.844 241.168 148.844 240.781C148.333 240.557 148.333 240.557 147.812 240.328C145.704 239.17 144.424 237.297 142.933 235.446C142.604 235.039 142.274 234.632 141.935 234.213C138.753 230.182 136.026 226.018 135.171 220.864C134.795 220.864 134.419 220.864 134.031 220.864C130.309 209.843 130.309 209.843 130.043 204.361C129.855 204.173 129.667 203.985 129.473 203.792C129.416 202.447 129.394 201.118 129.398 199.773C129.397 199.371 129.397 198.969 129.396 198.555C129.396 197.703 129.397 196.852 129.399 196C129.402 194.692 129.399 193.385 129.396 192.077C129.396 191.252 129.397 190.426 129.398 189.601C129.397 189.207 129.395 188.814 129.394 188.408C129.408 185.647 129.408 185.647 130.043 185.013C130.216 183.925 130.366 182.833 130.506 181.741C131.281 176.516 132.608 171.441 135.139 166.776C135.578 165.966 135.986 165.139 136.377 164.304C140.232 156.099 147.01 149.752 153.401 143.472C153.702 143.136 154.003 142.801 154.314 142.456C155.11 141.764 155.11 141.764 156.82 141.764C156.82 141.389 156.82 141.013 156.82 140.626C160.095 138.919 160.095 138.919 161.377 138.919C161.377 138.543 161.377 138.168 161.377 137.781C170.345 133.498 170.345 133.498 175.264 132.908C177.217 132.888 177.217 132.888 177.899 132.09C182.083 131.361 186.267 131.437 190.504 131.45ZM179.038 174.201C178.555 174.472 178.072 174.744 177.574 175.023C173.026 177.93 170.17 183.35 168.783 188.427C167.399 196.998 168.844 204.026 173.911 211.19C175.16 212.622 176.46 213.932 177.899 215.173C178.745 214.891 178.745 214.891 179.608 214.604C179.737 214.956 179.866 215.308 180 215.671C180.978 217.254 181.835 217.504 183.596 218.018C184.16 218.018 184.724 218.018 185.305 218.018C185.305 218.394 185.305 218.77 185.305 219.157C191.426 221.106 196.872 221.364 202.966 219.157C202.966 218.781 202.966 218.405 202.966 218.018C203.424 217.983 203.883 217.948 204.355 217.912C207.047 217.298 209.162 216.018 211.512 214.604C211.512 214.228 211.512 213.853 211.512 213.466C211.988 213.307 211.988 213.307 212.473 213.146C216.395 210.711 218.027 205.667 219.488 201.516C219.998 199.467 219.998 199.467 220.057 197.532C220.086 197.17 220.115 196.807 220.144 196.434C220.333 192.321 219.3 188.421 218.348 184.444C217.972 184.444 217.596 184.444 217.209 184.444C216.98 183.546 216.98 183.546 216.746 182.63C216.142 180.693 215.549 179.247 214.36 177.615C213.984 177.615 213.608 177.615 213.221 177.615C213.08 177.251 212.939 176.887 212.794 176.513C212.186 175.232 212.186 175.232 210.871 174.912C210.518 174.865 210.166 174.818 209.803 174.77C209.803 174.394 209.803 174.019 209.803 173.632C199.162 167.913 189.237 167.076 179.038 174.201Z" fill="#00CC99"/>
<path d="M326.435 24.7029C328.121 25.2278 329.798 25.7701 331.473 26.3272C331.835 26.4474 332.196 26.5675 332.568 26.6912C333.333 26.9457 334.098 27.2007 334.862 27.4561C336.011 27.8394 337.16 28.221 338.309 28.6024C341.638 29.7105 344.958 30.8336 348.251 32.0467C350.544 32.89 352.826 33.6093 355.185 34.2474C357.624 34.9258 359.975 35.6595 362.325 36.5927C363.935 37.1684 365.566 37.6153 367.214 38.0708C371.233 39.208 375.2 40.4801 379.16 41.8113C380.257 42.1803 381.356 42.5465 382.455 42.9122C386.218 44.1688 389.963 45.4638 393.682 46.8433C395.413 47.4632 397.175 47.9469 398.946 48.4383C399.719 48.6878 400.491 48.9424 401.261 49.2008C401.713 49.3522 402.165 49.5037 402.631 49.6597C404.574 50.314 406.517 50.9699 408.459 51.6272C410.028 52.1518 411.601 52.6589 413.176 53.1664C414.806 53.6967 416.305 54.2514 417.867 54.967C419.908 55.842 421.286 56.239 423.416 55.396C426.439 53.9036 429.219 52.0549 431.989 50.1455C432.55 49.7677 433.111 49.39 433.69 49.0007C434.524 48.4382 435.352 47.8661 436.169 47.278C437.117 46.7312 437.117 46.7312 438.826 46.7312C438.826 46.3556 438.826 45.98 438.826 45.593C441.842 43.3168 441.842 43.3168 443.953 43.3168C443.953 42.9412 443.953 42.5656 443.953 42.1787C444.517 42.1787 445.081 42.1787 445.662 42.1787C445.662 41.8031 445.662 41.4275 445.662 41.0406C448.07 39.5874 450.338 38.4329 453.017 37.5728C454.32 37.0586 454.32 37.0586 455.735 35.9635C458.025 34.5313 460.188 33.8762 462.789 33.216C463.265 33.0934 463.74 32.9709 464.23 32.8446C468.416 31.8296 472.969 30.9526 477.157 32.378C478.136 33.0737 478.136 33.0737 478.583 34.1051C479.148 38.5572 477.421 41.5699 474.976 45.1907C474.703 45.5113 474.429 45.8318 474.148 46.1621C473.772 46.1621 473.396 46.1621 473.008 46.1621C473.008 46.5377 473.008 46.9133 473.008 47.3002C472.632 47.3002 472.256 47.3002 471.869 47.3002C471.869 47.8636 471.869 48.427 471.869 49.0074C471.493 49.0074 471.117 49.0074 470.73 49.0074C470.612 49.3243 470.495 49.6412 470.374 49.9677C469.253 51.8504 467.943 52.829 466.172 54.1289C465.608 54.1289 465.044 54.1289 464.463 54.1289C464.463 54.5045 464.463 54.8801 464.463 55.2671C463.911 55.5253 463.358 55.7835 462.789 56.0495C461.004 56.7795 461.004 56.7795 460.475 58.1124C459.529 58.5121 458.581 58.9101 457.617 59.2638C456.113 60.0034 454.944 61.0469 453.638 62.0958C452.535 62.7803 451.419 63.4439 450.291 64.0875C449.688 64.433 449.085 64.7785 448.464 65.1345C447.916 65.4462 447.367 65.758 446.802 66.0792C446.252 66.3972 446.252 66.3972 445.691 66.7216C443.138 68.1976 440.541 69.5935 437.945 70.9918C436.47 71.7885 436.47 71.7885 434.838 72.9079C434.274 72.9079 433.71 72.9079 433.129 72.9079C433.087 73.5263 433.087 73.5263 433.044 74.1572C433.002 74.7073 432.959 75.2575 432.915 75.8243C432.875 76.3657 432.836 76.9071 432.795 77.4648C432.559 79.1676 432.559 79.1676 432.012 80.7414C431.234 83.1599 430.994 85.5417 430.707 88.0591C429.948 94.2883 428.963 100.472 427.93 106.66C427.854 107.123 427.777 107.585 427.699 108.061C427.48 109.382 427.258 110.703 427.036 112.024C426.969 112.425 426.903 112.826 426.834 113.238C426.358 116.025 426.358 116.025 425.723 117.295C425.605 118.145 425.514 119 425.438 119.855C425.391 120.36 425.344 120.865 425.295 121.385C425.248 121.913 425.201 122.441 425.153 122.985C425.06 124.029 424.965 125.072 424.868 126.115C424.827 126.579 424.786 127.042 424.743 127.52C424.583 128.676 424.583 128.676 424.013 129.814C423.861 130.915 423.735 132.02 423.624 133.126C423.554 133.795 423.484 134.464 423.411 135.153C423.268 136.56 423.126 137.966 422.984 139.372C422.655 142.504 422.301 145.518 421.456 148.553C420.784 151.273 420.467 154.075 420.061 156.844C419.86 158.161 419.658 159.478 419.456 160.794C419.186 162.553 418.917 164.312 418.661 166.073C418.475 167.35 418.273 168.623 418.067 169.897C417.962 170.589 417.857 171.281 417.749 171.993C417.033 174.044 416.234 174.4 414.328 175.339C414.14 175.714 413.952 176.09 413.759 176.477C412.819 176.477 411.879 176.477 410.91 176.477C409.979 171.232 409.454 165.994 409.029 160.687C408.985 160.161 408.941 159.636 408.896 159.094C408.84 158.382 408.84 158.382 408.782 157.656C408.743 156.557 408.743 156.557 408.062 155.991C407.938 155.031 407.85 154.068 407.777 153.103C407.73 152.504 407.683 151.905 407.635 151.288C407.588 150.645 407.541 150.002 407.492 149.34C407.441 148.685 407.39 148.031 407.338 147.356C407.091 144.142 406.868 140.928 406.673 137.71C406.403 133.817 405.871 129.967 405.345 126.103C404.618 120.706 404.048 115.295 403.505 109.877C403.439 109.228 403.372 108.58 403.304 107.912C403.217 107.044 403.217 107.044 403.129 106.159C403.009 104.774 403.009 104.774 402.364 103.637C402.232 102.188 402.126 100.75 402.044 99.298C402.019 98.8961 401.995 98.4941 401.969 98.0799C401.909 97.0872 401.852 96.0942 401.795 95.1012C399.169 95.5628 396.543 96.0283 393.919 96.4975C393.027 96.6564 392.134 96.8142 391.242 96.971C389.956 97.197 388.67 97.4269 387.385 97.6576C386.988 97.7264 386.592 97.7952 386.183 97.8661C384.044 98.2544 382.141 98.7982 380.146 99.6537C379.413 99.8666 378.675 100.064 377.934 100.243C377.539 100.339 377.145 100.436 376.739 100.535C376.335 100.632 375.932 100.728 375.517 100.827C373.014 101.433 370.558 102.053 368.133 102.928C363.83 104.446 363.83 104.446 361.345 104.206C361.416 103.21 361.416 103.21 361.915 101.93C363.036 101.144 364.176 100.385 365.333 99.6537C365.709 99.0903 366.085 98.527 366.473 97.9465C367.037 97.9465 367.601 97.9465 368.182 97.9465C368.182 97.571 368.182 97.1954 368.182 96.8084C369.119 95.9059 369.119 95.9059 370.354 94.8878C371.636 93.829 372.685 92.8997 373.672 91.558C373.928 91.2249 374.185 90.8919 374.449 90.5488C374.825 90.5488 375.201 90.5488 375.588 90.5488C376.152 89.422 376.152 89.422 376.727 88.2725C377.103 88.2725 377.479 88.2725 377.867 88.2725C378.149 87.4275 378.149 87.4275 378.437 86.5653C378.813 86.5653 379.189 86.5653 379.576 86.5653C379.858 85.7203 379.858 85.7203 380.146 84.8582C381.285 83.9097 382.425 82.9613 383.564 82.0129C383.846 81.1678 383.846 81.1678 384.134 80.3057C384.568 79.9653 385.003 79.6249 385.451 79.2743C387.144 77.8976 388.125 76.4642 389.261 74.6151C385.419 71.8348 381.528 69.4078 377.331 67.2062C375.031 65.961 373.438 64.5002 371.6 62.6648C369.796 61.6444 369.796 61.6444 368.182 60.9576C368.182 60.5821 368.182 60.2065 368.182 59.8195C367.618 59.8195 367.054 59.8195 366.473 59.8195C366.473 59.444 366.473 59.0684 366.473 58.6814C365.909 58.4878 365.909 58.4878 365.333 58.2902C363.484 57.4819 361.875 56.4875 360.186 55.3915C359.07 54.6709 359.07 54.6709 357.822 54.1111C356.788 53.5599 356.788 53.5599 356.218 52.4218C355.284 51.9167 354.332 51.4469 353.369 50.9991C350.584 49.7029 350.584 49.7029 349.951 48.4383C349.387 48.2505 348.823 48.0628 348.242 47.8693C348.242 47.4937 348.242 47.1181 348.242 46.7312C347.917 46.6761 347.591 46.6211 347.256 46.5644C345.684 46.0752 344.771 45.3253 343.506 44.2771C340.701 42.0279 337.815 40.3206 334.569 38.7643C334.569 38.3887 334.569 38.0132 334.569 37.6262C334.005 37.6262 333.441 37.6262 332.86 37.6262C332.86 37.2506 332.86 36.875 332.86 36.4881C332.291 36.2933 332.291 36.2933 331.711 36.0946C329.509 35.1299 327.592 33.8713 325.596 32.5402C325.206 32.2883 324.816 32.0363 324.414 31.7767C323.858 31.4075 323.858 31.4075 323.29 31.0309C322.785 30.6976 322.785 30.6976 322.27 30.3575C321.466 29.6594 321.466 29.6594 320.896 27.9522C321.601 27.3626 322.315 26.7836 323.032 26.2094C323.429 25.8859 323.825 25.5624 324.234 25.2291C325.454 24.5378 325.454 24.5378 326.435 24.7029Z" fill="#00CC99"/>
</g>
<defs>
<clipPath id="clip0_2054_57">
<rect width="478" height="390" fill="white"/>
</clipPath>
</defs>
</svg>
