<svg width="187" height="244" viewBox="0 0 187 244" fill="none" xmlns="http://www.w3.org/2000/svg">
<g filter="url(#filter0_d_1_358)">
<path d="M0.0786667 92.5045C0.0786667 76.4565 4.012 61.6671 11.8787 48.1365C19.7453 34.6058 30.5227 23.9071 44.2107 16.0405C57.8987 8.17379 72.688 4.16179 88.5787 4.00445C104.469 3.84712 119.259 7.85912 132.947 16.0405C146.635 24.2218 157.412 34.9205 165.279 48.1365C173.145 61.3525 177.079 76.1418 177.079 92.5045C177.079 99.2698 175.427 107.136 172.123 116.104C168.819 125.072 164.649 134.119 159.615 143.244C154.58 152.37 148.837 161.652 142.387 171.092C135.936 180.532 129.643 189.343 123.507 197.524C117.371 205.706 111.628 212.943 106.279 219.236C100.929 225.53 96.6813 230.643 93.5347 234.576L88.5787 240.004C87.32 238.746 85.668 236.858 83.6227 234.34C81.5773 231.823 77.408 226.867 71.1147 219.472C64.8213 212.078 59 204.683 53.6507 197.288C48.3013 189.894 42.0867 181.24 35.0067 171.328C27.9267 161.416 22.1053 151.976 17.5427 143.008C12.98 134.04 8.81067 125.151 5.03467 116.34C1.25867 107.53 -0.393333 99.5845 0.0786667 92.5045ZM29.5787 92.5045C29.5787 108.867 35.3213 122.791 46.8067 134.276C58.292 145.762 72.216 151.504 88.5787 151.504C104.941 151.504 118.865 145.762 130.351 134.276C141.836 122.791 147.579 108.867 147.579 92.5045C147.579 76.1418 141.836 62.2965 130.351 50.9685C118.865 39.6405 104.941 33.8191 88.5787 33.5045C72.216 33.1898 58.292 39.0111 46.8067 50.9685C35.3213 62.9258 29.5787 76.7711 29.5787 92.5045Z" fill="#00CC99"/>
</g>
<defs>
<filter id="filter0_d_1_358" x="0" y="0" width="186.079" height="244.004" filterUnits="userSpaceOnUse" color-interpolation-filters="sRGB">
<feFlood flood-opacity="0" result="BackgroundImageFix"/>
<feColorMatrix in="SourceAlpha" type="matrix" values="0 0 0 0 0 0 0 0 0 0 0 0 0 0 0 0 0 0 127 0" result="hardAlpha"/>
<feOffset dx="5"/>
<feGaussianBlur stdDeviation="2"/>
<feComposite in2="hardAlpha" operator="out"/>
<feColorMatrix type="matrix" values="0 0 0 0 0 0 0 0 0 0 0 0 0 0 0 0 0 0 0.15 0"/>
<feBlend mode="normal" in2="BackgroundImageFix" result="effect1_dropShadow_1_358"/>
<feBlend mode="normal" in="SourceGraphic" in2="effect1_dropShadow_1_358" result="shape"/>
</filter>
</defs>
</svg>
